<svg width="52" height="52" viewBox="0 0 52 52" xmlns="http://www.w3.org/2000/svg">
    <g fill="#10A310" fill-rule="nonzero">
        <path d="M50.96 49.92h-6.24v-9.36h6.24a1.04 1.04 0 0 0 .735-1.775l-7.28-7.28a1.05 1.05 0 0 0-.735-.305H8.322a1.052 1.052 0 0 0-.735.305l-7.28 7.28a1.04 1.04 0 0 0 .736 1.775h6.24v9.36h-6.24a1.04 1.04 0 0 0 0 2.08H50.96a1.04 1.04 0 0 0 0-2.08zM27.472 38.48l-5.2-5.2h20.977l5.2 5.2H27.471zm-18.72-5.2h8.499l-5.2 5.2H3.553l5.2-5.2zm.61 7.28h3.12c.276 0 .541-.109.735-.304l5.505-5.505v15.17h-9.36v-9.36zm11.44 9.36V34.75l5.504 5.505c.194.196.46.305.735.305h15.6v9.36H20.8zM34.892 6.47h-4.238a.72.72 0 0 1-.689-.5l-1.31-4.031A2.76 2.76 0 0 0 25.99 0a2.76 2.76 0 0 0-2.667 1.937l-1.31 4.031a.72.72 0 0 1-.688.5h-4.239a2.76 2.76 0 0 0-2.666 1.938 2.766 2.766 0 0 0 1.018 3.136l3.43 2.491c.255.186.36.511.263.81l-1.31 4.03a2.764 2.764 0 0 0 1.018 3.136c.5.364 1.074.545 1.648.545.574 0 1.148-.182 1.648-.545l3.43-2.491a.72.72 0 0 1 .85 0l3.43 2.491a2.764 2.764 0 0 0 3.296 0 2.763 2.763 0 0 0 1.018-3.135l-1.31-4.031a.72.72 0 0 1 .264-.81l3.428-2.491a2.762 2.762 0 0 0 1.019-3.136 2.761 2.761 0 0 0-2.667-1.936zm.426 3.389-3.429 2.492a2.797 2.797 0 0 0-1.019 3.136l1.31 4.03a.703.703 0 0 1-.264.81.701.701 0 0 1-.85 0l-3.43-2.492a2.799 2.799 0 0 0-3.295 0l-3.43 2.492a.7.7 0 0 1-.85 0 .703.703 0 0 1-.264-.81l1.31-4.03a2.8 2.8 0 0 0-1.018-3.136l-3.43-2.492a.702.702 0 0 1-.263-.81c.038-.117.2-.5.69-.5h4.238c1.219 0 2.29-.778 2.666-1.937l1.31-4.03a.703.703 0 0 1 .689-.502c.122 0 .537.036.688.5l1.31 4.03a2.798 2.798 0 0 0 2.667 1.938h4.238c.49 0 .65.383.69.5a.702.702 0 0 1-.264.811z"/>
        <path d="M24.961 20.8v8.32a1.04 1.04 0 0 0 2.08 0V20.8a1.04 1.04 0 0 0-2.08 0zM33.28 24.96h-1.039c-1.72 0-3.12 1.4-3.12 3.12v1.04a1.04 1.04 0 0 0 2.08 0v-1.04c0-.573.467-1.04 1.04-1.04h1.04a1.04 1.04 0 0 0 0-2.08zM21.842 30.16a1.04 1.04 0 0 0 1.04-1.04v-1.04c0-1.72-1.4-3.12-3.12-3.12h-1.04a1.04 1.04 0 0 0 0 2.08h1.04c.573 0 1.04.467 1.04 1.04v1.04c0 .574.466 1.04 1.04 1.04zM37.467 22.177a2.049 2.049 0 0 0 1.73 1.728l2.467.39.391 2.468a2.05 2.05 0 0 0 1.73 1.73c.114.018.228.027.34.027.776 0 1.474-.422 1.838-1.137l1.135-2.227 2.468.391a2.05 2.05 0 0 0 2.179-1.11 2.05 2.05 0 0 0-.383-2.414l-1.767-1.767 1.135-2.227a2.049 2.049 0 0 0-.383-2.414 2.047 2.047 0 0 0-2.414-.383l-2.227 1.135L43.94 14.6a2.049 2.049 0 0 0-2.414-.383 2.05 2.05 0 0 0-1.11 2.18l.39 2.467L38.58 20a2.046 2.046 0 0 0-1.112 2.178zm4.28-1.462a2.074 2.074 0 0 0 1.11-2.179l-.39-2.468 1.767 1.767c.64.638 1.61.793 2.414.383l2.232-1.147-.005.012-1.135 2.228a2.076 2.076 0 0 0 .383 2.415l1.767 1.767-2.47-.391a2.085 2.085 0 0 0-2.177 1.11l-1.135 2.226-.39-2.468a2.074 2.074 0 0 0-1.73-1.73l-2.467-.39 2.226-1.135zM.232 24.436a2.049 2.049 0 0 0 2.18 1.11l2.467-.39 1.135 2.226A2.042 2.042 0 0 0 7.85 28.52c.113 0 .227-.008.343-.027a2.049 2.049 0 0 0 1.728-1.73l.39-2.468 2.469-.39a2.05 2.05 0 0 0 1.73-1.73 2.05 2.05 0 0 0-1.11-2.179l-2.227-1.135.391-2.468a2.05 2.05 0 0 0-1.11-2.179 2.052 2.052 0 0 0-2.415.383l-1.767 1.767-2.226-1.135a2.05 2.05 0 0 0-2.416.383c-.65.649-.8 1.596-.383 2.414l1.135 2.227L.616 22.02a2.053 2.053 0 0 0-.383 2.417zm3.622-2.711c.638-.64.792-1.61.381-2.415l-1.133-2.226 2.225 1.135a2.071 2.071 0 0 0 2.415-.383l1.767-1.767-.391 2.468a2.074 2.074 0 0 0 1.11 2.18l2.226 1.134-2.469.391a2.077 2.077 0 0 0-1.73 1.73l-.39 2.468-1.134-2.228a2.075 2.075 0 0 0-2.177-1.11l-2.47.391 1.77-1.768z"/>
    </g>
</svg>
